<svg width="435" height="81" viewBox="0 0 435 81" fill="none" xmlns="http://www.w3.org/2000/svg">
<path d="M69.2683 68.3777C84.9106 52.7353 84.9106 27.3741 69.2683 11.7317C53.626 -3.91058 28.2647 -3.91058 12.6224 11.7317C-3.01996 27.3741 -3.01996 52.7353 12.6224 68.3777C28.2647 84.02 53.6259 84.02 69.2683 68.3777Z" fill="#416D19"/>
<path d="M62.8087 52.5883L43.9885 37.9426L38.0784 45.5373L48.1072 53.3416C43.2488 55.703 37.2663 55.2774 32.7155 51.7361C26.3371 46.7725 25.1902 37.578 30.1538 31.1996C35.1174 24.8211 44.3119 23.6742 50.6903 28.6378L50.8465 28.7635L57.1816 33.4315L64.1835 27.7632C64.1835 27.7632 65.1342 27.7995 63.5167 26.4295C61.82 24.9925 56.0236 20.5976 56.0236 20.5976C45.4731 12.8774 30.6292 14.893 22.5465 25.2796C14.3134 35.8594 16.2159 51.1104 26.7956 59.3434C37.3754 67.5765 52.6264 65.674 60.8594 55.0943C61.3102 54.5139 62.4178 53.1949 62.8087 52.5883Z" fill="#3C5C1F"/>
<path d="M44.8309 44.6955C43.1989 46.7928 40.1753 47.1699 38.0781 45.5379C35.9808 43.9059 35.6033 40.8828 37.2357 38.785C38.8677 36.6878 41.8913 36.3106 43.9885 37.9426C46.0857 39.5747 46.4629 42.5983 44.8309 44.6955Z" fill="#3C5C1F"/>
<path d="M56.4691 26.8929C58.1012 24.7957 61.1248 24.4185 63.222 26.0506C65.3192 27.6826 65.6964 30.7062 64.0644 32.8034C62.4323 34.9006 59.4092 35.2782 57.3115 33.6458C55.2138 32.0133 54.8371 28.9901 56.4691 26.8929Z" fill="#3C5C1F"/>
<path d="M60.8082 52.5883L41.988 37.9426L36.0779 45.5373L46.1067 53.3416C41.2483 55.703 35.2658 55.2774 30.7151 51.7361C24.3366 46.7725 23.1897 37.578 28.1533 31.1996C33.117 24.8211 42.3114 23.6742 48.6898 28.6378L48.846 28.7635L55.1811 33.4315L62.183 27.7632C62.183 27.7632 63.1337 27.7995 61.5162 26.4295C59.8195 24.9925 54.0231 20.5976 54.0231 20.5976C43.4726 12.8774 28.6287 14.893 20.546 25.2796C12.313 35.8594 14.2154 51.1104 24.7951 59.3434C35.3749 67.5765 50.6259 65.674 58.8589 55.0943C59.3097 54.5139 60.4173 53.1949 60.8082 52.5883Z" fill="#F2F2F2"/>
<path d="M42.8304 44.6955C41.1984 46.7927 38.1748 47.1699 36.0776 45.5379C33.9804 43.9059 33.6028 40.8828 35.2352 38.785C36.8672 36.6878 39.8908 36.3106 41.988 37.9426C44.0853 39.5747 44.4625 42.5983 42.8304 44.6955Z" fill="#BFEA7C"/>
<path d="M54.4687 26.8929C56.1007 24.7957 59.1243 24.4185 61.2215 26.0506C63.3188 27.6826 63.6959 30.7062 62.0639 32.8034C60.4319 34.9006 57.4088 35.2782 55.311 33.6458C53.2133 32.0133 52.8366 28.9901 54.4687 26.8929Z" fill="#BFEA7C"/>
<path d="M126.016 61.8984C118.906 61.8984 112.959 59.5746 108.175 54.927C103.392 50.2148 101 44.373 101 37.4016C101 30.4302 103.392 24.6206 108.175 19.973C112.959 15.2608 118.906 12.9048 126.016 12.9048C133.127 12.9048 139.074 15.2608 143.857 19.973C148.64 24.6206 151.032 30.4302 151.032 37.4016C151.032 42.6302 149.61 47.3101 146.766 51.4413C143.922 55.5079 140.108 58.445 135.324 60.2524C136.876 62.318 138.815 63.3508 141.142 63.3508C142.887 63.3508 144.568 62.8667 146.184 61.8984C147.865 60.9947 149.125 59.8328 149.966 58.4127L154.523 64.7063C150.515 68.9021 146.022 71 141.045 71C138.072 71 135.26 70.1608 132.609 68.4825C129.959 66.8042 128.117 64.5772 127.083 61.8016L126.016 61.8984ZM126.016 20.1667C121.297 20.1667 117.322 21.845 114.09 25.2016C110.858 28.5582 109.242 32.6249 109.242 37.4016C109.242 42.1783 110.858 46.245 114.09 49.6016C117.322 52.8937 121.297 54.5397 126.016 54.5397C130.735 54.5397 134.71 52.8937 137.942 49.6016C141.174 46.245 142.79 42.1783 142.79 37.4016C142.79 32.6249 141.174 28.5582 137.942 25.2016C134.71 21.845 130.735 20.1667 126.016 20.1667Z" fill="black"/>
<path d="M185.284 25.3952H192.944V61.4143H185.284V54.8302C184.056 57.0249 182.343 58.7677 180.145 60.0587C178.012 61.3497 175.717 61.9952 173.261 61.9952C169.124 61.9952 165.827 60.7365 163.371 58.219C160.914 55.7016 159.686 52.119 159.686 47.4714V25.3952H167.249V45.1476C167.249 51.7963 169.996 55.1206 175.491 55.1206C178.27 55.1206 180.598 54.2169 182.472 52.4095C184.347 50.6021 185.284 48.0847 185.284 44.8571V25.3952Z" fill="black"/>
<path d="M211.449 61.4143H203.886V25.3952H211.449V61.4143ZM202.916 14.7444C202.916 13.4534 203.369 12.3561 204.273 11.4524C205.243 10.4841 206.407 10 207.764 10C209.057 10 210.156 10.4841 211.061 11.4524C212.03 12.3561 212.515 13.4534 212.515 14.7444C212.515 16.1 212.03 17.2619 211.061 18.2302C210.156 19.1339 209.057 19.5857 207.764 19.5857C206.407 19.5857 205.275 19.1016 204.37 18.1333C203.401 17.2296 202.916 16.1 202.916 14.7444Z" fill="black"/>
<path d="M230.094 61.4143H222.531V11.1619H230.094V40.6937L244.735 25.3952H254.528L240.857 39.6286L255.595 61.4143H246.286L235.621 45.6317L230.094 51.1508V61.4143Z" fill="black"/>
<path d="M295.962 38.3698H303.913V54.5397C299.453 59.5101 293.053 61.9952 284.715 61.9952C277.669 61.9952 271.786 59.6714 267.068 55.0238C262.349 50.3762 259.989 44.5667 259.989 37.5952C259.989 30.6238 262.381 24.782 267.165 20.0698C272.013 15.2931 277.863 12.9048 284.715 12.9048C291.567 12.9048 297.255 14.8735 301.78 18.8111L297.514 24.9111C294.217 22.1355 290.177 20.7476 285.393 20.7476C280.545 20.7476 276.473 22.3291 273.176 25.4921C269.944 28.5905 268.328 32.6249 268.328 37.5952C268.328 42.5656 269.879 46.6 272.982 49.6984C276.15 52.7323 280.06 54.2492 284.715 54.2492C289.239 54.2492 292.989 53.281 295.962 51.3444V38.3698Z" fill="black"/>
<path d="M330.041 55.2175C333.338 55.2175 336.053 54.1201 338.186 51.9254C340.384 49.7307 341.483 46.8905 341.483 43.4048C341.483 39.919 340.384 37.0788 338.186 34.8841C336.053 32.6894 333.338 31.5921 330.041 31.5921C326.744 31.5921 324.029 32.6894 321.896 34.8841C319.763 37.0788 318.697 39.919 318.697 43.4048C318.697 46.8905 319.763 49.6984 321.896 51.8286C324.029 54.0878 326.744 55.2175 330.041 55.2175ZM330.041 61.9952C324.611 61.9952 320.086 60.2201 316.466 56.6698C312.847 53.055 311.037 48.6333 311.037 43.4048C311.037 38.1762 312.847 33.7868 316.466 30.2365C320.086 26.6217 324.611 24.8143 330.041 24.8143C335.471 24.8143 339.996 26.6217 343.616 30.2365C347.236 33.7868 349.046 38.1762 349.046 43.4048C349.046 48.4397 347.236 52.8291 343.616 56.573C339.996 60.1878 335.471 61.9952 330.041 61.9952Z" fill="black"/>
<path d="M365.203 61.4143H357.64V25.3952H365.203V31.8825C366.431 29.6878 368.112 27.9772 370.245 26.7508C372.442 25.4598 374.77 24.8143 377.226 24.8143C381.428 24.8143 384.757 26.073 387.213 28.5905C389.669 31.1079 390.897 34.6905 390.897 39.3381V61.4143H383.238V41.6619C383.238 35.0132 380.49 31.6889 374.996 31.6889C372.216 31.6889 369.889 32.5926 368.015 34.4C366.14 36.1429 365.203 38.628 365.203 41.8556V61.4143Z" fill="black"/>
<path d="M435 46.6968H406.687C406.881 49.2788 408.077 51.3767 410.275 52.9905C412.473 54.6042 415.026 55.4111 417.935 55.4111C422.524 55.4111 425.95 53.991 428.213 51.1508L432.576 55.8952C428.698 59.9619 423.623 61.9952 417.353 61.9952C412.182 61.9952 407.851 60.2847 404.36 56.8635C400.87 53.4423 399.124 48.9238 399.124 43.3079C399.124 37.8212 400.902 33.3672 404.457 29.946C408.012 26.5249 412.311 24.8143 417.353 24.8143C422.395 24.8143 426.597 26.3312 429.958 29.3651C433.319 32.3989 435 36.4333 435 41.4683V46.6968ZM427.437 40.6937C427.437 37.7889 426.5 35.4974 424.625 33.819C422.815 32.1407 420.456 31.3016 417.547 31.3016C414.638 31.3016 412.085 32.173 409.887 33.9159C407.754 35.6587 406.687 37.918 406.687 40.6937H427.437Z" fill="black"/>
</svg>
