<svg width="381" height="381" viewBox="0 0 381 381" fill="none" xmlns="http://www.w3.org/2000/svg">
<path d="M324.444 324.444C398.665 250.223 398.665 129.887 324.444 55.6657C250.223 -18.5552 129.887 -18.5552 55.6657 55.6657C-18.5553 129.887 -18.5552 250.223 55.6657 324.444C129.887 398.665 250.223 398.665 324.444 324.444Z" fill="#416D19"/>
<path d="M293.794 249.525L204.495 180.033L176.452 216.069L224.037 253.099C200.985 264.304 172.598 262.285 151.006 245.481C120.741 221.93 115.299 178.303 138.851 148.038C162.403 117.773 206.029 112.331 236.294 135.883L237.035 136.479L267.094 158.628L300.318 131.733C300.318 131.733 304.828 131.905 297.153 125.405C289.103 118.586 261.6 97.733 261.6 97.733C211.539 61.1019 141.106 70.6656 102.755 119.949C63.6901 170.148 72.7168 242.513 122.916 281.577C173.116 320.642 245.48 311.615 284.545 261.416C286.684 258.662 291.939 252.403 293.794 249.525Z" fill="#3C5C1F"/>
<path d="M208.492 212.075C200.748 222.026 186.401 223.815 176.45 216.072C166.499 208.328 164.708 193.984 172.453 184.03C180.197 174.079 194.544 172.289 204.495 180.033C214.446 187.777 216.235 202.124 208.492 212.075Z" fill="#3C5C1F"/>
<path d="M263.714 127.604C271.457 117.653 285.804 115.863 295.755 123.607C305.706 131.35 307.496 145.697 299.752 155.648C292.008 165.599 277.664 167.391 267.711 159.645C257.757 151.899 255.97 137.555 263.714 127.604Z" fill="#3C5C1F"/>
<path d="M284.302 249.525L195.002 180.033L166.959 216.069L214.544 253.099C191.492 264.304 163.106 262.285 141.513 245.482C111.248 221.93 105.806 178.303 129.358 148.038C152.91 117.773 196.536 112.331 226.801 135.883L227.542 136.479L257.601 158.628L290.825 131.733C290.825 131.733 295.336 131.905 287.661 125.405C279.61 118.586 252.107 97.733 252.107 97.733C202.046 61.1019 131.614 70.6656 93.2621 119.949C54.1974 170.148 63.2242 242.513 113.424 281.577C163.623 320.642 235.988 311.615 275.052 261.416C277.191 258.662 282.447 252.403 284.302 249.525Z" fill="#F2F2F2"/>
<path d="M198.999 212.075C191.255 222.026 176.909 223.815 166.958 216.072C157.007 208.328 155.215 193.984 162.961 184.03C170.704 174.079 185.051 172.289 195.002 180.033C204.953 187.777 206.743 202.124 198.999 212.075Z" fill="#BFEA7C"/>
<path d="M254.221 127.604C261.965 117.653 276.312 115.863 286.263 123.607C296.214 131.35 298.003 145.697 290.26 155.648C282.516 165.599 268.172 167.391 258.218 159.645C248.265 151.899 246.477 137.555 254.221 127.604Z" fill="#BFEA7C"/>
</svg>
