<svg width="398" height="494" viewBox="0 0 398 494" fill="none" xmlns="http://www.w3.org/2000/svg">
<path d="M333.444 324.444C407.665 250.223 407.665 129.887 333.444 55.6657C259.223 -18.5552 138.887 -18.5552 64.6657 55.6657C-9.55526 129.887 -9.55523 250.223 64.6657 324.444C138.887 398.665 259.223 398.665 333.444 324.444Z" fill="#416D19"/>
<path d="M302.794 249.525L213.495 180.033L185.452 216.069L233.037 253.099C209.985 264.304 181.598 262.285 160.006 245.481C129.741 221.93 124.299 178.303 147.851 148.038C171.403 117.773 215.029 112.331 245.294 135.883L246.035 136.479L276.094 158.628L309.318 131.733C309.318 131.733 313.828 131.905 306.153 125.405C298.103 118.586 270.6 97.733 270.6 97.733C220.539 61.1019 150.106 70.6656 111.755 119.949C72.6901 170.148 81.7168 242.513 131.916 281.577C182.116 320.642 254.48 311.615 293.545 261.416C295.684 258.662 300.939 252.403 302.794 249.525Z" fill="#3C5C1F"/>
<path d="M217.492 212.075C209.748 222.026 195.401 223.815 185.45 216.072C175.499 208.328 173.708 193.984 181.453 184.03C189.197 174.079 203.544 172.289 213.495 180.033C223.446 187.777 225.235 202.124 217.492 212.075Z" fill="#3C5C1F"/>
<path d="M272.714 127.604C280.457 117.653 294.804 115.863 304.755 123.607C314.706 131.35 316.496 145.697 308.752 155.648C301.008 165.599 286.664 167.391 276.711 159.645C266.757 151.899 264.97 137.555 272.714 127.604Z" fill="#3C5C1F"/>
<path d="M293.302 249.525L204.002 180.033L175.96 216.069L223.545 253.099C200.492 264.304 172.106 262.285 150.513 245.482C120.248 221.93 114.806 178.303 138.358 148.038C161.91 117.773 205.536 112.331 235.801 135.883L236.542 136.479L266.602 158.628L299.825 131.733C299.825 131.733 304.336 131.905 296.661 125.405C288.61 118.586 261.107 97.733 261.107 97.733C211.046 61.1019 140.614 70.6656 102.262 119.949C63.1975 170.148 72.2243 242.513 122.424 281.577C172.624 320.642 244.988 311.615 284.053 261.416C286.191 258.662 291.447 252.403 293.302 249.525Z" fill="#F2F2F2"/>
<path d="M207.999 212.075C200.256 222.026 185.909 223.815 175.958 216.072C166.007 208.328 164.215 193.984 171.961 184.03C179.705 174.079 194.051 172.289 204.002 180.033C213.953 187.777 215.743 202.124 207.999 212.075Z" fill="#BFEA7C"/>
<path d="M263.221 127.604C270.965 117.653 285.312 115.863 295.263 123.607C305.214 131.35 307.003 145.697 299.26 155.648C291.516 165.599 277.172 167.391 267.218 159.645C257.265 151.899 255.478 137.555 263.221 127.604Z" fill="#BFEA7C"/>
<path d="M29.8096 482.217C21.3366 482.217 14.2501 479.436 8.55003 473.874C2.85001 468.235 0 461.244 0 452.901C0 444.559 2.85001 437.606 8.55003 432.044C14.2501 426.405 21.3366 423.586 29.8096 423.586C38.2826 423.586 45.3691 426.405 51.0691 432.044C56.7691 437.606 59.6191 444.559 59.6191 452.901C59.6191 459.159 57.9245 464.759 54.5353 469.703C51.1461 474.57 46.6015 478.085 40.9015 480.247C42.7502 482.719 45.061 483.955 47.834 483.955C49.9137 483.955 51.9164 483.376 53.8421 482.217C55.8448 481.136 57.3468 479.745 58.3482 478.046L63.7786 485.578C59.0029 490.599 53.6495 493.109 47.7184 493.109C44.1752 493.109 40.8245 492.105 37.6664 490.097C34.5082 488.088 32.313 485.423 31.0805 482.101L29.8096 482.217ZM29.8096 432.276C24.1866 432.276 19.4494 434.285 15.598 438.301C11.7467 442.318 9.82098 447.185 9.82098 452.901C9.82098 458.618 11.7467 463.485 15.598 467.501C19.4494 471.441 24.1866 473.411 29.8096 473.411C35.4326 473.411 40.1697 471.441 44.0211 467.501C47.8725 463.485 49.7982 458.618 49.7982 452.901C49.7982 447.185 47.8725 442.318 44.0211 438.301C40.1697 434.285 35.4326 432.276 29.8096 432.276Z" fill="url(#paint0_linear_919_165)"/>
<path d="M100.434 438.533H109.562V481.638H100.434V473.759C98.9707 476.385 96.9295 478.471 94.3105 480.016C91.7686 481.561 89.0342 482.333 86.1071 482.333C81.1774 482.333 77.249 480.827 74.3219 477.814C71.3949 474.801 69.9314 470.514 69.9314 464.952V438.533H78.9436V462.171C78.9436 470.128 82.2172 474.106 88.7646 474.106C92.0767 474.106 94.8497 473.025 97.0835 470.862C99.3173 468.699 100.434 465.686 100.434 461.824V438.533Z" fill="url(#paint1_linear_919_165)"/>
<path d="M131.612 481.638H122.6V438.533H131.612V481.638ZM121.445 425.787C121.445 424.242 121.984 422.929 123.062 421.847C124.218 420.689 125.604 420.109 127.222 420.109C128.762 420.109 130.072 420.689 131.15 421.847C132.306 422.929 132.883 424.242 132.883 425.787C132.883 427.409 132.306 428.8 131.15 429.959C130.072 431.04 128.762 431.581 127.222 431.581C125.604 431.581 124.256 431.001 123.178 429.843C122.023 428.761 121.445 427.409 121.445 425.787Z" fill="url(#paint2_linear_919_165)"/>
<path d="M153.83 481.638H144.818V421.5H153.83V456.841L171.277 438.533H182.947L166.655 455.567L184.218 481.638H173.126L160.416 462.751L153.83 469.355V481.638Z" fill="url(#paint3_linear_919_165)"/>
<path d="M232.32 454.06H241.794V473.411C236.48 479.359 228.854 482.333 218.917 482.333C210.521 482.333 203.512 479.552 197.889 473.99C192.266 468.428 189.454 461.476 189.454 453.133C189.454 444.79 192.304 437.799 198.004 432.16C203.782 426.444 210.752 423.586 218.917 423.586C227.082 423.586 233.861 425.942 239.253 430.654L234.169 437.954C230.24 434.632 225.426 432.971 219.726 432.971C213.949 432.971 209.096 434.864 205.168 438.649C201.317 442.357 199.391 447.185 199.391 453.133C199.391 459.081 201.24 463.909 204.937 467.617C208.711 471.248 213.371 473.063 218.917 473.063C224.309 473.063 228.777 471.905 232.32 469.587V454.06Z" fill="url(#paint4_linear_919_165)"/>
<path d="M272.929 474.222C276.858 474.222 280.093 472.909 282.635 470.282C285.254 467.656 286.563 464.257 286.563 460.086C286.563 455.914 285.254 452.515 282.635 449.889C280.093 447.262 276.858 445.949 272.929 445.949C269.001 445.949 265.766 447.262 263.224 449.889C260.682 452.515 259.411 455.914 259.411 460.086C259.411 464.257 260.682 467.617 263.224 470.167C265.766 472.87 269.001 474.222 272.929 474.222ZM272.929 482.333C266.459 482.333 261.067 480.209 256.753 475.96C252.44 471.634 250.283 466.343 250.283 460.086C250.283 453.828 252.44 448.576 256.753 444.327C261.067 440.001 266.459 437.838 272.929 437.838C279.399 437.838 284.791 440.001 289.105 444.327C293.418 448.576 295.575 453.828 295.575 460.086C295.575 466.111 293.418 471.364 289.105 475.844C284.791 480.17 279.399 482.333 272.929 482.333Z" fill="url(#paint5_linear_919_165)"/>
<path d="M314.828 481.638H305.816V438.533H314.828V446.297C316.292 443.67 318.295 441.623 320.836 440.155C323.455 438.61 326.228 437.838 329.155 437.838C334.162 437.838 338.129 439.344 341.056 442.357C343.983 445.37 345.447 449.657 345.447 455.219V481.638H336.319V458C336.319 450.043 333.045 446.065 326.498 446.065C323.186 446.065 320.413 447.146 318.179 449.309C315.945 451.395 314.828 454.369 314.828 458.232V481.638Z" fill="url(#paint6_linear_919_165)"/>
<path d="M398 464.025H364.262C364.493 467.115 365.918 469.626 368.537 471.557C371.156 473.488 374.199 474.454 377.665 474.454C383.134 474.454 387.216 472.754 389.912 469.355L395.111 475.033C390.49 479.9 384.443 482.333 376.972 482.333C370.809 482.333 365.649 480.286 361.489 476.192C357.33 472.098 355.25 466.69 355.25 459.97C355.25 453.404 357.368 448.073 361.605 443.979C365.841 439.885 370.963 437.838 376.972 437.838C382.98 437.838 387.986 439.653 391.992 443.284C395.997 446.915 398 451.743 398 457.768V464.025ZM388.988 456.841C388.988 453.365 387.871 450.623 385.637 448.614C383.48 446.606 380.669 445.601 377.203 445.601C373.736 445.601 370.694 446.644 368.075 448.73C365.533 450.816 364.262 453.519 364.262 456.841H388.988Z" fill="url(#paint7_linear_919_165)"/>
<defs>
<linearGradient id="paint0_linear_919_165" x1="0" y1="456.609" x2="398" y2="456.609" gradientUnits="userSpaceOnUse">
<stop stop-color="#416D19"/>
<stop offset="1" stop-color="#3C5C1F"/>
</linearGradient>
<linearGradient id="paint1_linear_919_165" x1="0" y1="456.609" x2="398" y2="456.609" gradientUnits="userSpaceOnUse">
<stop stop-color="#416D19"/>
<stop offset="1" stop-color="#3C5C1F"/>
</linearGradient>
<linearGradient id="paint2_linear_919_165" x1="0" y1="456.609" x2="398" y2="456.609" gradientUnits="userSpaceOnUse">
<stop stop-color="#416D19"/>
<stop offset="1" stop-color="#3C5C1F"/>
</linearGradient>
<linearGradient id="paint3_linear_919_165" x1="0" y1="456.609" x2="398" y2="456.609" gradientUnits="userSpaceOnUse">
<stop stop-color="#416D19"/>
<stop offset="1" stop-color="#3C5C1F"/>
</linearGradient>
<linearGradient id="paint4_linear_919_165" x1="0" y1="456.609" x2="398" y2="456.609" gradientUnits="userSpaceOnUse">
<stop stop-color="#416D19"/>
<stop offset="1" stop-color="#3C5C1F"/>
</linearGradient>
<linearGradient id="paint5_linear_919_165" x1="0" y1="456.609" x2="398" y2="456.609" gradientUnits="userSpaceOnUse">
<stop stop-color="#416D19"/>
<stop offset="1" stop-color="#3C5C1F"/>
</linearGradient>
<linearGradient id="paint6_linear_919_165" x1="0" y1="456.609" x2="398" y2="456.609" gradientUnits="userSpaceOnUse">
<stop stop-color="#416D19"/>
<stop offset="1" stop-color="#3C5C1F"/>
</linearGradient>
<linearGradient id="paint7_linear_919_165" x1="0" y1="456.609" x2="398" y2="456.609" gradientUnits="userSpaceOnUse">
<stop stop-color="#416D19"/>
<stop offset="1" stop-color="#3C5C1F"/>
</linearGradient>
</defs>
</svg>
